<svg width="10" height="6" viewBox="0 0 10 6" fill="none" xmlns="http://www.w3.org/2000/svg">
<path d="M9.8113 1.12453L5.57956 5.33853C5.52918 5.38854 5.4746 5.42389 5.41583 5.44456C5.35706 5.46557 5.29408 5.47607 5.22691 5.47607C5.15974 5.47607 5.09677 5.46557 5.038 5.44456C4.97922 5.42389 4.92465 5.38854 4.87427 5.33853L0.629936 1.12453C0.512387 1.00782 0.453613 0.861931 0.453613 0.686869C0.453613 0.511807 0.516586 0.361754 0.64253 0.236709C0.768475 0.111664 0.91541 0.0491425 1.08334 0.0491425C1.25126 0.0491425 1.3982 0.111664 1.52414 0.236709L5.22691 3.91302L8.92969 0.236709C9.04723 0.120001 9.19199 0.0616466 9.36394 0.0616466C9.53623 0.0616466 9.68535 0.124169 9.8113 0.249213C9.93724 0.374258 10.0002 0.520143 10.0002 0.686869C10.0002 0.853595 9.93724 0.99948 9.8113 1.12453Z" fill="#23272A"/>
</svg>
