<svg width="64" height="64" viewBox="0 0 64 64" fill="none" xmlns="http://www.w3.org/2000/svg">
<path d="M42.6668 32.0001L32.0002 21.3334L28.2668 25.0667L32.5335 29.3334H21.3335V34.6667H32.5335L28.2668 38.9334L32.0002 42.6667L42.6668 32.0001ZM58.6668 32.0001C58.6668 35.689 57.9664 39.1556 56.5655 42.4001C55.1664 45.6445 53.2668 48.4667 50.8668 50.8667C48.4668 53.2667 45.6446 55.1663 42.4002 56.5654C39.1557 57.9663 35.6891 58.6667 32.0002 58.6667C28.3113 58.6667 24.8446 57.9663 21.6002 56.5654C18.3557 55.1663 15.5335 53.2667 13.1335 50.8667C10.7335 48.4667 8.83305 45.6445 7.43216 42.4001C6.03305 39.1556 5.3335 35.689 5.3335 32.0001C5.3335 28.3112 6.03305 24.8445 7.43216 21.6001C8.83305 18.3556 10.7335 15.5334 13.1335 13.1334C15.5335 10.7334 18.3557 8.83386 21.6002 7.43475C24.8446 6.03386 28.3113 5.33342 32.0002 5.33342C35.6891 5.33342 39.1557 6.03386 42.4002 7.43475C45.6446 8.83386 48.4668 10.7334 50.8668 13.1334C53.2668 15.5334 55.1664 18.3556 56.5655 21.6001C57.9664 24.8445 58.6668 28.3112 58.6668 32.0001Z" fill="#F7F7F7"/>
</svg>
